<?xml version="1.0" encoding="utf-8"?>
<!-- Generator: Adobe Illustrator 23.1.1, SVG Export Plug-In . SVG Version: 6.00 Build 0)  -->
<svg version="1.1" id="Layer_1" xmlns="http://www.w3.org/2000/svg" xmlns:xlink="http://www.w3.org/1999/xlink" x="0px" y="0px"
	 viewBox="0 0 3559.8 1496.8" style="enable-background:new 0 0 3559.8 1496.8;" xml:space="preserve">
<style type="text/css">
	.st0{fill:#FFFFFF;}
	.st1{font-family:'Futura-Bold';}
	.st2{font-size:223.02px;}
</style>
<title>logo</title>
<g id="bike">
	<path class="st0" d="M1622.5,582.7c28.7-15,58.9-26.7,89.9-36.1l-120.8-319.4L1637,181c18.5-18.9,18.5-49.2-0.1-68l-96.3-97.3
		c-9-9.1-21.3-14.3-34.2-14.4l-242-1.3c-26.7-0.1-48.5,21.4-48.7,48.2c-0.1,26.7,21.4,48.5,48.2,48.7l222,1.2l48.7,49.2l-33.7,34.1
		c-13.1,13.4-17.3,33.1-10.8,50.7c0,0.1,0.1,0.2,0.1,0.4l43.9,116l-659.4,78.8l0.5-90.4l145.2,0.8c26.7,0.1,48.5-21.4,48.7-48.2
		c0.1-26.7-21.4-48.5-48.2-48.7l-290.5-1.5c-26.7-0.1-48.5,21.4-48.7,48.2c-0.1,26.7,21.4,48.5,48.2,48.7l48.4,0.3l-0.7,132.1
		l-68.2,115.6c-68.6-36.2-145-55.3-222.6-55.6C219.8,527,1.4,743.1,0,1010c-1.4,267.1,214.7,485.4,481.6,486.8
		c233.8,1.2,430.3-164.4,476.5-384.8l66.4,0.4c19.7,56.5,73.3,97.3,136.4,97.6c80.1,0.4,145.6-64.3,146-144.5
		c0.2-32.2-10.3-63.6-30-89.1l312.6-480.8L1622.5,582.7z M482.1,1399.9c-213.6-1.1-386.4-175.8-385.3-389.4s175.8-386.3,389.4-385.2
		c60.4,0.2,120,14.7,173.8,42.3l-217.8,368.9c-13.6,23-6.1,52.6,16.9,66.2c7.4,4.4,15.9,6.7,24.5,6.8h0.2l374.8,2
		C814.7,1278.1,662.3,1400.9,482.1,1399.9z M568.5,1013l171.8-290.8c81,71.5,131.9,176.2,131.2,292.4L568.5,1013z M1025.1,1015.4
		l-56.7-0.3c0.8-151.9-68.8-288.1-178.2-377.5l35.2-59.7l226,392.3C1040,983.6,1031.1,998.9,1025.1,1015.4z M1161.5,1113
		c-26.8-0.1-48.3-21.9-48.2-48.7c0.1-26.8,21.9-48.3,48.7-48.2c26.8,0.1,48.3,21.9,48.2,48.7c0,0,0,0.1,0,0.1
		C1210,1091.6,1188.2,1113.1,1161.5,1113L1161.5,1113z M1195.8,923.4c-10.9-2.6-22.1-3.9-33.3-4c-9.1-0.1-18.2,0.7-27.2,2.4
		L904.5,521.2l599.5-71.7L1195.8,923.4z"/>
</g>
<text transform="matrix(1.08 0 0 1 1705.5898 937.6699)" class="st0 st1 st2">RE</text>
<path class="st0" d="M1921.7,1099.2c-20.3,10.1-67.9,21.7-128.3,21.7c-173.8,0-263.5-108.6-263.5-251.8
	c0-171.2,122.7-265.9,274.2-265.9c59,0,103.9,11.5,123.6,22.3l-23.2,89.8c-22.6-9.9-54.8-18.8-95.4-18.8
	c-89.6,0-159.8,54.6-159.8,166.2c0,100.7,59.3,163.9,160.4,163.9c34.8,0,72.4-6.8,94.9-16.2L1921.7,1099.2z"/>
<path class="st0" d="M2117.5,1113V907.2L1958.9,611h130l51.1,120.8c15.4,36.1,26.4,62.9,38.7,96.2h1.5
	c11.2-31.3,23.3-60.7,37.8-96.3l50.6-120.7h128L2231,903.4V1113H2117.5z"/>
<path class="st0" d="M2784.2,1099.2c-20.3,10.1-67.9,21.7-128.3,21.7c-173.8,0-263.5-108.6-263.5-251.8
	c0-171.2,122.7-265.9,274.2-265.9c59,0,103.9,11.5,123.6,22.3l-23.1,89.8c-22.6-9.9-54.8-18.8-95.4-18.8
	c-89.6,0-159.8,54.6-159.8,166.2c0,100.7,59.3,163.9,160.4,163.9c34.8,0,72.4-6.8,94.9-16.2L2784.2,1099.2z"/>
<path class="st0" d="M2859.2,611h113.5v406.9h199.8v95.1h-313.3V611z"/>
<path class="st0" d="M3538,900.7h-184.7v119.4h206.5v93h-320V611h309.3v93h-195.8v104.6H3538V900.7z"/>
</svg>
